
        <svg xmlns="http://www.w3.org/2000/svg" xmlns:xlink="http://www.w3.org/1999/xlink" version="1.1" width="3162.2940373825236" height="1154.5636120687311" viewBox="0 0 3162.2940373825236 1154.5636120687311">
			
			<g transform="scale(8.114701869126158) translate(10, 10)">
				<defs id="SvgjsDefs1399"/><g id="SvgjsG1400" featureKey="symbolFeature-0" transform="matrix(0.4588610886155163,0,0,0.4588610886155163,-30.317904211174053,-25.072824946574308)" fill="#000"><path xmlns="http://www.w3.org/2000/svg" xmlns:a="http://ns.adobe.com/AdobeSVGViewerExtensions/3.0/" a:adobe-knockout="false" d="M97.525,109.331l2.974-3.296c6.748-6.807,7.151-7.214,11.826-11.134     c2.631-2.064,6.17-4.778,8.888-6.729c17.951-12.38,42.964-21.189,67.617-22.474c3.697-0.192,7.256-0.209,10.661-0.063l0.95,0.046     c8.825,0.689,9.354,0.73,14.713,1.614c9.464,1.888,10.028,1.998,15.655,3.674c-9.965-3.006-22.103-4.361-35.867-3.644     C156.394,69.335,117.094,86.968,97.525,109.331"/><path xmlns="http://www.w3.org/2000/svg" xmlns:a="http://ns.adobe.com/AdobeSVGViewerExtensions/3.0/" a:adobe-knockout="false" d="M69.501,163.724l2.021-7.443c1.329-3.848,3.1-8.986,4.63-12.758l0.674-1.56     c15.141-34.348,71.952-64.401,127.459-67.293c26.144-1.362,47.364,3.542,61.044,12.691l6.584,4.746     c3.434,2.851,7.979,6.698,11.24,9.745C269.246,88.4,243.377,80.768,210.153,82.5c-60.384,3.147-122.196,36.038-138.062,73.462     C70.973,158.602,70.113,161.189,69.501,163.724"/><path xmlns="http://www.w3.org/2000/svg" xmlns:a="http://ns.adobe.com/AdobeSVGViewerExtensions/3.0/" a:adobe-knockout="false" d="M68.891,220.21c-0.813-4.66-1.851-10.889-2.375-15.59l-0.419-6.647     c-0.224-6.202,1.058-12.827,3.997-19.76c17.07-40.266,83.574-75.653,148.543-79.04c42.602-2.219,73.965,9.873,85.695,29.813     c6.049,11.404,6.541,12.336,9.576,20.417c-8.801-23.918-42.652-38.976-90.279-36.495     c-66.251,3.452-134.069,39.539-151.476,80.601C68.094,203.082,67.135,212.081,68.891,220.21"/><path xmlns="http://www.w3.org/2000/svg" xmlns:a="http://ns.adobe.com/AdobeSVGViewerExtensions/3.0/" a:adobe-knockout="false" d="M92.813,271.626c-7.364-10.301-7.965-11.143-11.981-18.586     c-5.477-10.262-5.922-22.479-0.262-35.826c17.182-40.531,84.125-76.154,149.522-79.56c53.184-2.772,88.967,16.613,91.234,45.75     c0.137,3.502,0.402,8.168,0.379,11.67c-0.17,3.192-0.287,7.455-0.592,10.637c3.164-31.788-32.625-53.73-87.91-50.85     c-63.073,3.286-127.639,37.642-144.21,76.733C82.489,246.935,84.344,260.728,92.813,271.626"/><path xmlns="http://www.w3.org/2000/svg" xmlns:a="http://ns.adobe.com/AdobeSVGViewerExtensions/3.0/" a:adobe-knockout="false" d="M138.141,308.339l-1.272-0.625c-9.498-5.146-11.208-6.073-19.119-11.712     c-14.395-10.624-19.502-26.277-11.865-44.292c14.988-35.355,73.379-66.426,130.423-69.398     c56.316-2.934,90.262,22.611,76.697,57.281l-1.432,3.529c-5.064,10.84-5.369,11.489-9.361,17.986     c1.588-2.523,2.938-5.081,4.035-7.666c13.582-32.041-17.316-55.833-69.018-53.139c-51.698,2.695-104.621,30.854-118.205,62.897     C110.784,282.642,118.919,299.047,138.141,308.339"/><path xmlns="http://www.w3.org/2000/svg" xmlns:a="http://ns.adobe.com/AdobeSVGViewerExtensions/3.0/" a:adobe-knockout="false" d="M203.519,320.49c33.849-1.764,68.495-20.201,77.39-41.179     c8.895-20.979-11.336-36.553-45.184-34.789c-33.849,1.764-68.497,20.201-77.391,41.179     C149.441,306.679,169.671,322.255,203.519,320.49c-0.983,0.257-1.973,0.411-2.967,0.463c-8.32,0.227-8.646,0.237-13.268,0.01     c-2.216-0.176-5.176-0.358-7.385-0.594c-30.642-3.323-47.16-20.407-37.89-42.273c10.914-25.743,53.429-48.367,94.965-50.532     c41.535-2.164,66.359,16.951,55.445,42.693c-3.455,8.148-10.078,15.985-18.83,22.959c-2.738,2.07-6.428,4.782-9.254,6.727     c-6.793,4.263-6.793,4.263-10.469,6.225c-6.666,3.362-6.666,3.362-10.117,4.828c-6.504,2.603-6.504,2.603-10.041,3.775     c-3.322,1.016-9.504,2.903-10.275,2.903c-6.993,1.504-7.267,1.562-10.89,2.09c-7.553,0.933-7.848,0.971-11.992,1.189     C201.546,320.901,202.535,320.747,203.519,320.49"/><path xmlns="http://www.w3.org/2000/svg" xmlns:a="http://ns.adobe.com/AdobeSVGViewerExtensions/3.0/" a:adobe-knockout="false" d="M218.023,308.125c11.248-0.586,22.766-6.713,25.721-13.686     s-3.768-12.148-15.018-11.562c-11.25,0.587-22.767,6.714-25.722,13.687C200.049,303.535,206.772,308.712,218.023,308.125     c-1.771,2.74-3.607,5.031-5.493,6.887c-20.602,1.075-32.915-8.405-27.502-21.174c5.414-12.769,26.502-23.991,47.104-25.065     c20.602-1.072,32.916,8.407,27.502,21.176c-5.412,12.769-26.502,23.99-47.104,25.063     C214.416,313.156,216.253,310.865,218.023,308.125"/></g><g id="SvgjsG1401" featureKey="nameFeature-0" transform="matrix(1.648946514275209,0,0,1.648946514275209,130.7999611220508,-4.8320467539160425)" fill="#000"><path d="M18.84 20.44 c0 1.56 -0.24 2.92 -0.8 3.92 c1.52 1.44 2.16 3.76 2.16 7 c0 3.44 -0.72 5.88 -2.36 7.16 c-1.56 1.24 -3.76 1.48 -5.96 1.48 l-7.8 0 c-0.2 0 -0.32 -0.16 -0.32 -0.36 l0 -25.68 c0 -0.2 0.12 -0.36 0.32 -0.36 l6.4 0 c2.16 0 4.4 0.16 5.92 1.16 c1.88 1.2 2.44 3.36 2.44 5.68 z M9.04 18.84 l0 3.6 l2.44 0 c1.28 0 1.96 -0.4 1.96 -1.8 s-1.04 -1.8 -2.8 -1.8 l-1.6 0 z M10.56 34.76 c2.2 0 4.28 -0.96 4.28 -3.52 c0 -1.92 -1.36 -3.44 -3.4 -3.44 l-2.4 0 l0 6.96 l1.52 0 z M6.08 16.12 l0 21.32 c0 0.2 0.16 0.28 0.32 0.28 l5.36 0 c3.88 0 6.2 -1.96 6.2 -6.16 c0 -3 -0.68 -6.12 -3.8 -7 c1.84 -0.6 2.32 -2.44 2.32 -4.4 c0 -3.2 -1.8 -4.36 -5.04 -4.36 l-5.04 0 c-0.24 0 -0.32 0.12 -0.32 0.32 z M11.16 37.24 l-4.56 0 l0 -12.32 l5.64 0 c4.12 0 5.16 2.68 5.16 6.64 c0 4.04 -2.2 5.84 -6.24 5.68 z M16 20.16 c0 3.24 -1.36 4.24 -4.64 4.24 l-4.76 0 l0 -8.08 l4.84 0 c2.36 0 4.56 0.44 4.56 3.84 z M31.64 13.600000000000001 c0.2 0 0.36 0.16 0.36 0.36 l0 21 l8.64 0 c0.2 0 0.36 0.16 0.36 0.36 l0 4.32 c0 0.2 -0.16 0.36 -0.36 0.36 l-13.56 0 c-0.2 0 -0.32 -0.16 -0.32 -0.36 l0 -25.68 c0 -0.2 0.12 -0.36 0.32 -0.36 l4.56 0 z M29.16 16.04 l0 21.52 c0 0.08 0.08 0.2 0.24 0.2 l9.24 0 c0.32 0 0.32 -0.52 0 -0.52 l-9.04 0 l0 -21.2 c0 -0.28 -0.44 -0.32 -0.44 0 z M55.28 13.239999999999998 c3.44 0 5.84 0.76 7.36 2.4 c1.2 1.32 1.76 3.2 1.76 5.88 l0 10.52 c0 2.76 -0.56 4.68 -1.76 5.96 c-1.56 1.6 -3.92 2.4 -7.36 2.4 c-3.56 0 -5.88 -0.8 -7.4 -2.4 c-1.16 -1.28 -1.8 -3.2 -1.8 -5.96 l0 -10.52 c0 -2.68 0.64 -4.56 1.8 -5.92 c1.56 -1.6 3.92 -2.36 7.4 -2.36 z M59.08 30.84 l0 -8 c0 -3.52 -1.88 -4.24 -3.6 -4.24 l-0.48 0 c-2.56 0 -3.56 1.64 -3.56 4.24 l0 8 c0 3.52 1.88 4.28 3.56 4.28 l0.48 0 c2.56 0 3.56 -1.72 3.6 -4.28 z M48.6 21.8 l0 9.92 c0 1.88 0.48 3.44 1.6 4.6 c1.04 1.04 2.64 1.6 4.6 1.6 l1.04 0 c3.76 0 6.2 -2.4 6.2 -6.2 l0 -9.92 c0 -4.08 -2.16 -6.28 -6.2 -6.28 l-1.04 0 c-4.08 0 -6.2 2.2 -6.2 6.28 z M55.84 37.4 l-1.04 0 c-1.88 0 -3.28 -0.48 -4.28 -1.48 s-1.52 -2.4 -1.52 -4.2 l0 -9.92 c0 -3.8 2.04 -5.8 5.8 -5.8 l1.04 0 c3.8 0 5.68 1.96 5.68 5.8 l0 9.92 c0 1.68 -0.52 3.2 -1.6 4.24 c-1.04 0.88 -2.44 1.44 -4.08 1.44 z M79.68 30.4 c-0.2 0 -0.36 -0.16 -0.36 -0.36 l0 -4.28 c0 -0.2 0.16 -0.36 0.36 -0.36 l9.16 0 c0.2 0 0.36 0.16 0.36 0.36 l0 6.28 c0 5.88 -3.16 8.36 -9.12 8.36 c-5.56 0 -9.2 -2.2 -9.2 -8.36 l0 -10.52 c0 -5.8 3.24 -8.28 9.2 -8.28 c5.6 0 9.12 2.16 9.12 8.28 l0 0.84 c0 0.2 -0.16 0.36 -0.36 0.36 l-4.6 0 c-0.2 0 -0.36 -0.16 -0.36 -0.36 l0 -0.52 c0 -2.44 -1.56 -3.24 -3.6 -3.24 l-0.48 0 c-1.32 0 -2.2 0.36 -2.8 1.16 c-0.56 0.76 -0.76 1.76 -0.76 3.08 l0 7.92 c0 3.48 1.88 4.24 3.56 4.24 l0.48 0 c2.44 0 3.6 -1.68 3.6 -4.24 l0 -0.36 l-4.2 0 z M73.32 31.759999999999998 c0 4.44 2.16 6.08 6.72 6.08 c4.8 0 6.76 -2 6.76 -6.92 l0 -3 c0 -0.12 -0.08 -0.28 -0.16 -0.28 l-5.56 0 c-0.36 0 -0.28 0.52 0 0.52 l5.24 0 l0 2.76 c0 4.28 -1.64 6.48 -6.28 6.48 c-3.84 0 -6.24 -1.36 -6.24 -5.64 l0 -9.64 c0 -4.12 1.88 -5.96 6.24 -5.96 c3.24 0 6.2 1.8 5.96 4.56 c0 0.32 0.44 0.4 0.52 0.04 c0 -3.52 -3.2 -5.04 -6.48 -5.04 c-4 0 -6.72 1.44 -6.72 6.4 l0 9.64 z M100.88000000000001 13.600000000000001 c0.2 0 0.36 0.16 0.36 0.36 l0 21 l8.64 0 c0.2 0 0.36 0.16 0.36 0.36 l0 4.32 c0 0.2 -0.16 0.36 -0.36 0.36 l-13.56 0 c-0.2 0 -0.32 -0.16 -0.32 -0.36 l0 -25.68 c0 -0.2 0.12 -0.36 0.32 -0.36 l4.56 0 z M98.4 16.04 l0 21.52 c0 0.08 0.08 0.2 0.24 0.2 l9.24 0 c0.32 0 0.32 -0.52 0 -0.52 l-9.04 0 l0 -21.2 c0 -0.28 -0.44 -0.32 -0.44 0 z M116.16000000000001 40 c-0.2 0 -0.32 -0.16 -0.32 -0.36 l0 -25.68 c0 -0.2 0.12 -0.36 0.32 -0.36 l4.56 0 c0.2 0 0.36 0.16 0.36 0.36 l0 25.68 c0 0.2 -0.16 0.36 -0.36 0.36 l-4.56 0 z M118.24000000000001 16 l0 21.56 c0 0.36 0.44 0.36 0.44 0 l0 -21.56 c0 -0.28 -0.44 -0.28 -0.44 0 z M143.52 20.44 c0 1.56 -0.24 2.92 -0.8 3.92 c1.52 1.44 2.16 3.76 2.16 7 c0 3.44 -0.72 5.88 -2.36 7.16 c-1.56 1.24 -3.76 1.48 -5.96 1.48 l-7.8 0 c-0.2 0 -0.32 -0.16 -0.32 -0.36 l0 -25.68 c0 -0.2 0.12 -0.36 0.32 -0.36 l6.4 0 c2.16 0 4.4 0.16 5.92 1.16 c1.88 1.2 2.44 3.36 2.44 5.68 z M133.72 18.84 l0 3.6 l2.44 0 c1.28 0 1.96 -0.4 1.96 -1.8 s-1.04 -1.8 -2.8 -1.8 l-1.6 0 z M135.24 34.76 c2.2 0 4.28 -0.96 4.28 -3.52 c0 -1.92 -1.36 -3.44 -3.4 -3.44 l-2.4 0 l0 6.96 l1.52 0 z M130.76000000000002 16.12 l0 21.32 c0 0.2 0.16 0.28 0.32 0.28 l5.36 0 c3.88 0 6.2 -1.96 6.2 -6.16 c0 -3 -0.68 -6.12 -3.8 -7 c1.84 -0.6 2.32 -2.44 2.32 -4.4 c0 -3.2 -1.8 -4.36 -5.04 -4.36 l-5.04 0 c-0.24 0 -0.32 0.12 -0.32 0.32 z M135.84 37.24 l-4.56 0 l0 -12.32 l5.64 0 c4.12 0 5.16 2.68 5.16 6.64 c0 4.04 -2.2 5.84 -6.24 5.68 z M140.68 20.16 c0 3.24 -1.36 4.24 -4.64 4.24 l-4.76 0 l0 -8.08 l4.84 0 c2.36 0 4.56 0.44 4.56 3.84 z"/></g><g id="SvgjsG1402" featureKey="sloganFeature-0" transform="matrix(1.3178151392055615,0,0,1.3178151392055615,134.8651405678738,73.27606392927116)" fill="#000"><path d="M6.22 6.619999999999999 c1.72 0 2.92 0.38 3.68 1.2 c0.6 0.66 0.88 1.6 0.88 2.94 l0 5.26 c0 1.38 -0.28 2.34 -0.88 2.98 c-0.78 0.8 -1.96 1.2 -3.68 1.2 c-1.78 0 -2.94 -0.4 -3.7 -1.2 c-0.58 -0.64 -0.9 -1.6 -0.9 -2.98 l0 -5.26 c0 -1.34 0.3 -2.3 0.9 -2.96 c0.76 -0.82 1.96 -1.18 3.7 -1.18 z M8.12 15.42 l0 -4 c0 -1.76 -0.94 -2.12 -1.8 -2.12 l-0.24 0 c-1.28 0 -1.78 0.82 -1.78 2.12 l0 4 c0 1.76 0.94 2.14 1.78 2.14 l0.24 0 c1.28 0 1.78 -0.86 1.8 -2.14 z M10.68 8.6 c0.04 0.06 0.1 0.1 0.1 0.1 c0.16 0.18 0.32 0.4 0.44 0.66 l-0.42 -0.44 c-0.06 -0.12 -0.08 -0.22 -0.12 -0.32 z M10.94 9.66 l0.56 0.54 c0.04 0.2 0.1 0.42 0.12 0.68 l-0.6 -0.6 c-0.02 -0.22 -0.04 -0.42 -0.08 -0.62 z M11.02 10.86 l0.62 0.6 l0 0.16 l0 0.4 l-0.62 -0.62 l0 -0.54 z M11.64 12.58 l0 0.58 l-0.62 -0.64 l0 -0.54 z M7.58 10.2 l-0.5 -0.5 c0.26 0.12 0.42 0.28 0.54 0.5 l-0.04 0 z M11.02 13.66 l0 -0.56 l0.62 0.6 l0 0.58 z M11.02 14.780000000000001 l0 -0.58 l0.62 0.62 l0 0.58 z M6.08 9.56 l0.3 0 l0.62 0.62 l-0.06 0 c-0.16 0 -0.32 0 -0.46 0.02 l-0.66 -0.62 c0.08 -0.02 0.18 -0.02 0.26 -0.02 z M11.02 15.9 l0 -0.58 l0.62 0.64 l0 0.54 z M5 9.88 c0.1 -0.1 0.22 -0.16 0.38 -0.2 l0.66 0.68 c-0.14 0.04 -0.24 0.12 -0.34 0.22 z M4.62 10.62 c0.06 -0.16 0.08 -0.3 0.16 -0.42 l0.66 0.68 c-0.06 0.12 -0.12 0.24 -0.14 0.4 z M10.98 16.98 c0.02 -0.18 0.04 -0.36 0.04 -0.52 l0.62 0.62 c0 0.18 -0.02 0.38 -0.02 0.52 z M10.8 17.9 c0.04 -0.12 0.08 -0.3 0.1 -0.44 l0.64 0.64 c-0.02 0.18 -0.04 0.32 -0.1 0.48 z M4.54 11.42 c0 -0.1 0 -0.2 0.04 -0.3 l0.62 0.64 c-0.02 0.16 -0.02 0.34 -0.02 0.52 l-0.64 -0.6 l0 -0.26 z M10.44 18.68 c0.08 -0.1 0.16 -0.22 0.2 -0.36 l0.68 0.68 c-0.04 0.12 -0.12 0.26 -0.2 0.38 z M4.54 12.8 l0 -0.58 l0.64 0.64 l0 0.54 z M9.94 19.3 c0.14 -0.1 0.16 -0.12 0.28 -0.28 l0.7 0.68 c-0.02 0.08 -0.14 0.2 -0.28 0.3 z M4.54 13.9 l0 -0.54 l0.64 0.62 l0 0.54 z M9.3 19.78 c0.12 -0.06 0.24 -0.12 0.34 -0.2 l0.68 0.68 c-0.1 0.06 -0.2 0.14 -0.32 0.22 z M4.54 15.02 l0 -0.54 l0.64 0.62 l0 0.56 z M8.94 19.98 l0.68 0.68 c-0.14 0.04 -0.28 0.1 -0.42 0.14 l-0.68 -0.68 c0.16 -0.04 0.28 -0.1 0.42 -0.14 z M4.58 15.6 l0.6 0.6 l0 0.06 c0 0.2 0 0.4 0.02 0.54 l-0.52 -0.52 c-0.08 -0.2 -0.1 -0.42 -0.1 -0.68 z M8.1 20.26 l0.64 0.66 c-0.14 0.04 -0.3 0.06 -0.46 0.08 l-0.66 -0.64 c0.18 -0.04 0.32 -0.06 0.48 -0.1 z M7.22 21.08 l-0.62 -0.62 c0.2 0 0.38 0 0.52 -0.04 l0.66 0.64 c-0.18 0 -0.36 0.02 -0.56 0.02 z M6.64 21.08 c-0.2 -0.02 -0.4 -0.02 -0.6 -0.06 l-0.56 -0.6 c0.16 0.04 0.36 0.04 0.56 0.04 z M4.58 20.68 l-0.46 -0.48 c0.22 0.08 0.46 0.12 0.7 0.16 l0.52 0.54 c-0.26 -0.04 -0.52 -0.12 -0.76 -0.22 z M22.3615 6.98 c0 -0.1 0.08 -0.18 0.18 -0.18 l2.3 0 c0.1 0 0.18 0.08 0.18 0.18 l0 12.84 c0 0.1 -0.08 0.18 -0.18 0.18 l-2.22 0 c-0.08 0 -0.16 -0.04 -0.18 -0.1 l-2.92 -6.58 l0 6.5 c0 0.1 -0.08 0.18 -0.18 0.18 l-2.28 0 c-0.1 0 -0.16 -0.08 -0.16 -0.18 l0 -12.84 c0 -0.1 0.06 -0.18 0.16 -0.18 l2.36 0 c0.08 0 0.12 0.06 0.14 0.1 l2.8 6.46 l0 -6.38 z M25.9015 8.22 l0 0.56 l-0.64 -0.6 l0 -0.58 z M25.9015 9.36 l0 0.54 l-0.64 -0.6 l0 -0.58 z M25.9015 10.48 l0 0.54 l-0.64 -0.6 l0 -0.56 z M25.9015 11.6 l0 0.56 l-0.64 -0.6 l0 -0.58 z M25.9015 12.719999999999999 l0 0.56 l-0.64 -0.62 l0 -0.56 z M20.4015 7.699999999999999 l0.1 0.18 l-0.4 -0.38 l-0.06 -0.14 z M25.9015 13.82 l0 0.58 l-0.64 -0.62 l0 -0.56 z M20.9215 8.88 l0.42 0.98 l-0.38 -0.38 l-0.44 -1 z M22.121499999999997 11.66 l0 0.1 l-0.3 -0.3 l-0.42 -0.98 l0.36 0.38 z M25.9015 14.96 l0 0.56 l-0.64 -0.62 l0 -0.54 z M25.9015 16.08 l0 0.58 l-0.64 -0.64 l0 -0.54 z M25.9015 17.2 l0 0.58 l-0.64 -0.62 l0 -0.56 z M25.9015 18.32 l0 0.58 l-0.64 -0.62 l0 -0.58 z M25.9015 19.46 l0 0.56 l-0.64 -0.62 l0 -0.58 z M19.761499999999998 15.02 l0 -0.52 l0.44 0.92 z M25.7215 20.88 l-0.1 0 l-0.66 -0.66 c0.16 -0.04 0.26 -0.14 0.28 -0.26 l0.66 0.62 l0 0.12 c0 0.1 -0.08 0.18 -0.18 0.18 z M20.4015 16.2 l0 0.56 l-0.64 -0.64 l0 -0.54 z M24.5015 20.88 l-0.64 -0.62 l0.58 0 l0.62 0.62 l-0.56 0 z M20.4015 17.32 l0 0.56 l-0.64 -0.6 l0 -0.58 z M23.3415 20.82 l-0.54 -0.56 l0.52 0 l0.62 0.62 l-0.48 0 c-0.04 0 -0.06 0 -0.12 -0.06 z M20.4015 18.46 l0 0.54 l-0.64 -0.62 l0 -0.56 z M20.4015 19.56 l0 0.56 l-0.64 -0.62 l0 -0.54 z M19.4015 20.26 c0.14 -0.04 0.26 -0.1 0.32 -0.24 l0.68 0.66 l0 0.02 c0 0.1 -0.08 0.18 -0.18 0.18 l-0.2 0 z M18.8215 20.26 l0.62 0.62 l-0.54 0 l-0.64 -0.62 l0.56 0 z M17.2415 20.26 l0.48 0 l0.6 0.62 l-0.4 0 c-0.06 0 -0.08 -0.02 -0.1 -0.06 c-0.06 -0.04 -0.32 -0.32 -0.58 -0.56 z M33.843 6.800000000000001 c0.1 0 0.18 0.08 0.18 0.18 l0 10.5 l4.32 0 c0.1 0 0.18 0.08 0.18 0.18 l0 2.16 c0 0.1 -0.08 0.18 -0.18 0.18 l-6.78 0 c-0.1 0 -0.16 -0.08 -0.16 -0.18 l0 -12.84 c0 -0.1 0.06 -0.18 0.16 -0.18 l2.28 0 z M39.403 19.4 l0 0.58 l-0.64 -0.62 l0 -0.58 z M39.223 20.88 l-0.06 0 l-0.64 -0.66 c0.12 -0.06 0.22 -0.16 0.24 -0.32 l0.64 0.62 l0 0.18 c0 0.1 -0.08 0.18 -0.18 0.18 z M38.003 20.26 l0.6 0.62 l-0.56 0 l-0.62 -0.62 l0.58 0 z M37.503 20.88 l-0.58 0 l-0.62 -0.62 l0.56 0 z M34.263 8.1 l0 -0.54 l0.64 0.62 l0 0.54 z M34.903 9.3 l0 0.56 l-0.64 -0.64 l0 -0.54 z M34.263 10.36 l0 -0.56 l0.64 0.62 l0 0.56 z M34.263 11.48 l0 -0.56 l0.64 0.6 l0 0.58 z M34.263 12.6 l0 -0.54 l0.64 0.6 l0 0.56 z M39.403 18.5 l0 0.36 l-0.64 -0.64 l0 -0.4 l0.58 0.58 c0.02 0.02 0.06 0.06 0.06 0.1 z M34.263 13.719999999999999 l0 -0.56 l0.64 0.62 l0 0.58 z M34.263 14.86 l0 -0.58 l0.64 0.62 l0 0.58 z M34.263 15.98 l0 -0.58 l0.64 0.62 l0 0.56 z M34.263 17.1 l0 -0.58 l0.64 0.64 l0 0.06 l-0.5 0 z M35.203 20.26 l0.54 0 l0.62 0.62 l-0.56 0 z M34.063 20.26 l0.56 0 l0.62 0.62 l-0.58 0 z M32.943 20.26 l0.56 0 l0.62 0.62 l-0.58 0 z M32.363 20.26 l0.64 0.62 l-0.56 0 l-0.62 -0.62 l0.54 0 z M44.104499999999994 20 c-0.1 0 -0.16 -0.08 -0.16 -0.18 l0 -12.84 c0 -0.1 0.06 -0.18 0.16 -0.18 l2.28 0 c0.1 0 0.18 0.08 0.18 0.18 l0 12.84 c0 0.1 -0.08 0.18 -0.18 0.18 l-2.28 0 z M46.8045 8.12 l0 -0.54 l0.64 0.6 l0 0.58 z M46.8045 9.26 l0 -0.56 l0.64 0.6 l0 0.58 z M46.8045 10.38 l0 -0.58 l0.64 0.62 l0 0.56 z M46.8045 11.5 l0 -0.58 l0.64 0.64 l0 0.54 z M46.8045 12.620000000000001 l0 -0.56 l0.64 0.62 l0 0.54 z M46.8045 13.76 l0 -0.58 l0.64 0.62 l0 0.56 z M46.8045 14.879999999999999 l0 -0.58 l0.64 0.62 l0 0.56 z M46.8045 15.98 l0 -0.56 l0.64 0.6 l0 0.58 z M46.8045 17.1 l0 -0.54 l0.64 0.62 l0 0.54 z M46.8045 18.22 l0 -0.54 l0.64 0.6 l0 0.58 z M46.8045 19.36 l0 -0.56 l0.64 0.6 l0 0.58 z M46.564499999999995 20.22 c0.12 -0.04 0.22 -0.16 0.24 -0.32 l0.64 0.62 l0 0.18 c0 0.1 -0.08 0.18 -0.18 0.18 l-0.06 0 z M45.464499999999994 20.26 l0.58 0 l0.62 0.62 l-0.58 0 z M44.964499999999994 20.88 l-0.6 -0.62 l0.54 0 l0.64 0.62 l-0.58 0 z M58.32599999999999 6.98 c0 -0.1 0.08 -0.18 0.18 -0.18 l2.3 0 c0.1 0 0.18 0.08 0.18 0.18 l0 12.84 c0 0.1 -0.08 0.18 -0.18 0.18 l-2.22 0 c-0.08 0 -0.16 -0.04 -0.18 -0.1 l-2.92 -6.58 l0 6.5 c0 0.1 -0.08 0.18 -0.18 0.18 l-2.28 0 c-0.1 0 -0.16 -0.08 -0.16 -0.18 l0 -12.84 c0 -0.1 0.06 -0.18 0.16 -0.18 l2.36 0 c0.08 0 0.12 0.06 0.14 0.1 l2.8 6.46 l0 -6.38 z M61.866 8.22 l0 0.56 l-0.64 -0.6 l0 -0.58 z M61.866 9.36 l0 0.54 l-0.64 -0.6 l0 -0.58 z M61.866 10.48 l0 0.54 l-0.64 -0.6 l0 -0.56 z M61.866 11.6 l0 0.56 l-0.64 -0.6 l0 -0.58 z M61.866 12.719999999999999 l0 0.56 l-0.64 -0.62 l0 -0.56 z M56.366 7.699999999999999 l0.1 0.18 l-0.4 -0.38 l-0.06 -0.14 z M61.866 13.82 l0 0.58 l-0.64 -0.62 l0 -0.56 z M56.885999999999996 8.88 l0.42 0.98 l-0.38 -0.38 l-0.44 -1 z M58.086 11.66 l0 0.1 l-0.3 -0.3 l-0.42 -0.98 l0.36 0.38 z M61.866 14.96 l0 0.56 l-0.64 -0.62 l0 -0.54 z M61.866 16.08 l0 0.58 l-0.64 -0.64 l0 -0.54 z M61.866 17.2 l0 0.58 l-0.64 -0.62 l0 -0.56 z M61.866 18.32 l0 0.58 l-0.64 -0.62 l0 -0.58 z M61.866 19.46 l0 0.56 l-0.64 -0.62 l0 -0.58 z M55.726 15.02 l0 -0.52 l0.44 0.92 z M61.68599999999999 20.88 l-0.1 0 l-0.66 -0.66 c0.16 -0.04 0.26 -0.14 0.28 -0.26 l0.66 0.62 l0 0.12 c0 0.1 -0.08 0.18 -0.18 0.18 z M56.366 16.2 l0 0.56 l-0.64 -0.64 l0 -0.54 z M60.465999999999994 20.88 l-0.64 -0.62 l0.58 0 l0.62 0.62 l-0.56 0 z M56.366 17.32 l0 0.56 l-0.64 -0.6 l0 -0.58 z M59.306 20.82 l-0.54 -0.56 l0.52 0 l0.62 0.62 l-0.48 0 c-0.04 0 -0.06 0 -0.12 -0.06 z M56.366 18.46 l0 0.54 l-0.64 -0.62 l0 -0.56 z M56.366 19.56 l0 0.56 l-0.64 -0.62 l0 -0.54 z M55.366 20.26 c0.14 -0.04 0.26 -0.1 0.32 -0.24 l0.68 0.66 l0 0.02 c0 0.1 -0.08 0.18 -0.18 0.18 l-0.2 0 z M54.785999999999994 20.26 l0.62 0.62 l-0.54 0 l-0.64 -0.62 l0.56 0 z M53.205999999999996 20.26 l0.48 0 l0.6 0.62 l-0.4 0 c-0.06 0 -0.08 -0.02 -0.1 -0.06 c-0.06 -0.04 -0.32 -0.32 -0.58 -0.56 z M67.5275 20 c-0.1 0 -0.16 -0.08 -0.16 -0.18 l0 -12.84 c0 -0.1 0.06 -0.18 0.16 -0.18 l6.8 0 c0.1 0 0.18 0.08 0.18 0.18 l0 2.14 c0 0.1 -0.08 0.18 -0.18 0.18 l-4.32 0 l0 2.72 l3.36 0 c0.1 0 0.16 0.08 0.16 0.18 l0 2.18 c0 0.1 -0.06 0.18 -0.16 0.18 l-3.36 0 l0 2.94 l4.32 0 c0.1 0 0.18 0.08 0.18 0.18 l0 2.14 c0 0.1 -0.08 0.18 -0.18 0.18 l-6.8 0 z M73.7875 14.36 l0.62 0.62 l0 0.28 c0 0.06 -0.08 0.14 -0.12 0.14 l-0.7 -0.68 c0.12 -0.06 0.2 -0.2 0.2 -0.36 z M74.7675 19.82 l0.62 0.64 l0 0.24 c0 0.08 -0.08 0.16 -0.16 0.18 l-0.66 -0.7 c0.12 -0.06 0.2 -0.2 0.2 -0.36 z M73.7875 13.8 l0 -0.58 l0.62 0.64 l0 0.56 z M70.2675 10.28 l0 -0.58 l0.62 0.62 l0 0.58 z M70.9075 15.42 l-0.62 -0.62 l0.58 0 l0.62 0.62 l-0.58 0 z M75.2075 10.18 l-0.58 0 l-0.6 -0.62 l0.3 0 c0.08 0 0.16 -0.04 0.2 -0.06 z M70.1875 20.88 l-0.56 0 l-0.62 -0.62 l0.58 0 z M67.8875 20.26 l0.58 0 l0.6 0.62 l-0.56 0 z M74.7675 19.28 l0 -0.58 l0.62 0.62 l0 0.56 z M72.5275 14.8 l0.58 0 l0.6 0.62 l-0.54 0 z M73.5075 10.18 l-0.6 -0.62 l0.56 0 l0.62 0.62 l-0.58 0 z M73.5075 20.26 l0.56 0 l0.62 0.62 l-0.58 0 z M71.7875 9.56 l0.54 0 l0.64 0.62 l-0.58 0 z M72.9275 20.26 l0.64 0.62 l-0.58 0 l-0.6 -0.62 l0.54 0 z M71.9875 14.8 l0.6 0.62 l-0.56 0 l-0.62 -0.62 l0.58 0 z M71.3075 20.88 l-0.54 0 l-0.64 -0.62 l0.56 0 z M75.3875 9.22 l0 0.56 l-0.62 -0.62 l0 -0.56 z M70.8875 15.96 l0 0.54 l-0.62 -0.62 l0 -0.56 z M75.3875 8.1 l0 0.56 l-0.62 -0.64 l0 -0.54 z M70.66749999999999 9.56 l0.54 0 l0.62 0.62 l-0.54 0 z M72.4275 20.88 l-0.54 0 l-0.62 -0.62 l0.54 0 z M70.2675 11.4 l0 -0.58 l0.62 0.64 l0 0.32 l-0.26 0 z M70.2675 17 l0 -0.54 l0.62 0.62 l0 0.18 l-0.38 0 z M73.7875 12.379999999999999 l0.58 0.58 c0.04 0.04 0.04 0.06 0.04 0.12 l0 0.22 l-0.62 -0.62 l0 -0.3 z M75.3875 18.52 l0 0.24 l-0.62 -0.6 l0 -0.3 l0.56 0.54 c0.06 0.06 0.06 0.08 0.06 0.12 z M93.0505 6.800000000000001 c0.1 0 0.18 0.08 0.18 0.18 l0 10.5 l4.32 0 c0.1 0 0.18 0.08 0.18 0.18 l0 2.16 c0 0.1 -0.08 0.18 -0.18 0.18 l-6.78 0 c-0.1 0 -0.16 -0.08 -0.16 -0.18 l0 -12.84 c0 -0.1 0.06 -0.18 0.16 -0.18 l2.28 0 z M98.61049999999999 19.4 l0 0.58 l-0.64 -0.62 l0 -0.58 z M98.4305 20.88 l-0.06 0 l-0.64 -0.66 c0.12 -0.06 0.22 -0.16 0.24 -0.32 l0.64 0.62 l0 0.18 c0 0.1 -0.08 0.18 -0.18 0.18 z M97.2105 20.26 l0.6 0.62 l-0.56 0 l-0.62 -0.62 l0.58 0 z M96.7105 20.88 l-0.58 0 l-0.62 -0.62 l0.56 0 z M93.47049999999999 8.1 l0 -0.54 l0.64 0.62 l0 0.54 z M94.11049999999999 9.3 l0 0.56 l-0.64 -0.64 l0 -0.54 z M93.47049999999999 10.36 l0 -0.56 l0.64 0.62 l0 0.56 z M93.47049999999999 11.48 l0 -0.56 l0.64 0.6 l0 0.58 z M93.47049999999999 12.6 l0 -0.54 l0.64 0.6 l0 0.56 z M98.61049999999999 18.5 l0 0.36 l-0.64 -0.64 l0 -0.4 l0.58 0.58 c0.02 0.02 0.06 0.06 0.06 0.1 z M93.47049999999999 13.719999999999999 l0 -0.56 l0.64 0.62 l0 0.58 z M93.47049999999999 14.86 l0 -0.58 l0.64 0.62 l0 0.58 z M93.47049999999999 15.98 l0 -0.58 l0.64 0.62 l0 0.56 z M93.47049999999999 17.1 l0 -0.58 l0.64 0.64 l0 0.06 l-0.5 0 z M94.41049999999998 20.26 l0.54 0 l0.62 0.62 l-0.56 0 z M93.2705 20.26 l0.56 0 l0.62 0.62 l-0.58 0 z M92.1505 20.26 l0.56 0 l0.62 0.62 l-0.58 0 z M91.5705 20.26 l0.64 0.62 l-0.56 0 l-0.62 -0.62 l0.54 0 z M103.312 20 c-0.1 0 -0.16 -0.08 -0.16 -0.18 l0 -12.84 c0 -0.1 0.06 -0.18 0.16 -0.18 l2.28 0 c0.1 0 0.18 0.08 0.18 0.18 l0 12.84 c0 0.1 -0.08 0.18 -0.18 0.18 l-2.28 0 z M106.01199999999999 8.12 l0 -0.54 l0.64 0.6 l0 0.58 z M106.01199999999999 9.26 l0 -0.56 l0.64 0.6 l0 0.58 z M106.01199999999999 10.38 l0 -0.58 l0.64 0.62 l0 0.56 z M106.01199999999999 11.5 l0 -0.58 l0.64 0.64 l0 0.54 z M106.01199999999999 12.620000000000001 l0 -0.56 l0.64 0.62 l0 0.54 z M106.01199999999999 13.76 l0 -0.58 l0.64 0.62 l0 0.56 z M106.01199999999999 14.879999999999999 l0 -0.58 l0.64 0.62 l0 0.56 z M106.01199999999999 15.98 l0 -0.56 l0.64 0.6 l0 0.58 z M106.01199999999999 17.1 l0 -0.54 l0.64 0.62 l0 0.54 z M106.01199999999999 18.22 l0 -0.54 l0.64 0.6 l0 0.58 z M106.01199999999999 19.36 l0 -0.56 l0.64 0.6 l0 0.58 z M105.77199999999999 20.22 c0.12 -0.04 0.22 -0.16 0.24 -0.32 l0.64 0.62 l0 0.18 c0 0.1 -0.08 0.18 -0.18 0.18 l-0.06 0 z M104.672 20.26 l0.58 0 l0.62 0.62 l-0.58 0 z M104.172 20.88 l-0.6 -0.62 l0.54 0 l0.64 0.62 l-0.58 0 z M119.61349999999999 10.22 c0 0.78 -0.12 1.46 -0.4 1.96 c0.76 0.72 1.08 1.88 1.08 3.5 c0 1.72 -0.36 2.94 -1.18 3.58 c-0.78 0.62 -1.88 0.74 -2.98 0.74 l-3.9 0 c-0.1 0 -0.16 -0.08 -0.16 -0.18 l0 -12.84 c0 -0.1 0.06 -0.18 0.16 -0.18 l3.2 0 c1.08 0 2.2 0.08 2.96 0.58 c0.94 0.6 1.22 1.68 1.22 2.84 z M115.47349999999999 17.38 c1.1 0 2.14 -0.48 2.14 -1.76 c0 -0.96 -0.68 -1.72 -1.7 -1.72 l-1.2 0 l0 3.48 l0.76 0 z M114.71349999999998 9.42 l0 1.8 l1.22 0 c0.64 0 0.98 -0.2 0.98 -0.9 s-0.52 -0.9 -1.4 -0.9 l-0.8 0 z M120.77349999999998 19.08 l-0.68 -0.68 c0.08 -0.14 0.12 -0.28 0.14 -0.42 l0.68 0.68 z M120.57349999999998 19.46 c-0.06 0.1 -0.16 0.22 -0.24 0.32 l-0.66 -0.7 c0.1 -0.1 0.16 -0.22 0.22 -0.32 z M119.37349999999998 19.38 l0.7 0.68 c-0.1 0.12 -0.24 0.2 -0.34 0.24 l-0.66 -0.7 c0.12 -0.04 0.2 -0.12 0.3 -0.22 z M118.29349999999998 19.98 c0.14 -0.06 0.28 -0.1 0.4 -0.18 l0.68 0.68 c-0.14 0.08 -0.26 0.12 -0.4 0.14 z M120.17349999999999 12.879999999999999 l-0.66 -0.76 c0.06 -0.1 0.1 -0.22 0.12 -0.34 l0.68 0.68 c-0.02 0.14 -0.08 0.26 -0.14 0.42 z M118.0135 20.82 l-0.62 -0.64 c0.14 0 0.3 -0.02 0.48 -0.08 l0.64 0.66 c-0.14 0.04 -0.3 0.06 -0.5 0.06 z M119.77349999999998 11.36 l0.06 -0.5 l0.64 0.62 c0 0.18 -0.04 0.34 -0.06 0.5 z M120.5135 16.58 c0.02 -0.16 0.02 -0.36 0.02 -0.56 l0.64 0.64 c0 0.2 -0.04 0.36 -0.04 0.54 z M121.0135 18.2 l-0.64 -0.64 c0.04 -0.18 0.04 -0.3 0.06 -0.48 l0.66 0.64 z M116.33349999999999 20.26 c0.18 0 0.36 0 0.54 -0.04 l0.62 0.64 c-0.16 0.02 -0.32 0.02 -0.56 0.02 z M115.59349999999999 15.58 l0 0.54 l-0.62 -0.6 l0 -0.56 z M120.43349999999998 10.32 c0.04 0.2 0.06 0.4 0.06 0.6 l-0.62 -0.6 c0 -0.26 0 -0.42 -0.04 -0.6 z M115.83349999999999 14.16 c0.3 0 0.5 0.04 0.68 0.1 l0.52 0.52 l-0.56 0 z M112.97349999999999 20.26 l0.54 0 l0.62 0.62 l-0.54 0 z M114.71349999999998 20.88 l-0.62 -0.62 l0.54 0 l0.64 0.62 l-0.56 0 z M115.59349999999999 10.3 l0 0.22 l-0.62 -0.62 l0 -0.22 l0.32 0 l0.62 0.62 l-0.32 0 z M115.77349999999998 20.26 l0.62 0.62 l-0.56 0 l-0.62 -0.62 l0.56 0 z M115.59349999999999 14.780000000000001 l0 0.22 l-0.62 -0.6 l0 -0.24 l0.32 0 l0.6 0.62 l-0.3 0 z M120.53349999999999 15.48 c0 -0.2 0 -0.38 -0.02 -0.58 l0.6 0.58 c0 0.2 0.02 0.4 0.02 0.6 z M114.97349999999999 16.62 l0 -0.54 l0.62 0.62 l0 0.42 l-0.12 0 z M120.71349999999998 13.98 c0.12 0.24 0.2 0.52 0.28 0.82 l-0.56 -0.54 c-0.02 -0.26 -0.06 -0.48 -0.14 -0.74 z M115.87349999999998 9.7 c0.7 0.06 0.8 0.32 0.8 0.6 l-0.2 0 z M119.59349999999999 8.5 c0.32 0.3 0.54 0.68 0.7 1.1 l-0.52 -0.5 c-0.06 -0.22 -0.1 -0.42 -0.18 -0.6 z M114.97349999999999 10.98 l0 -0.5 l0.5 0.5 l-0.5 0 z M133.695 14.780000000000001 c-0.28 0.58 -0.68 1.02 -1.24 1.28 l1.68 3.7 c0.06 0.12 -0.02 0.24 -0.14 0.24 l-2.46 0 c-0.08 0 -0.12 -0.04 -0.14 -0.1 l-1.56 -3.4 l-1.02 0 l0 3.32 c0 0.1 -0.08 0.18 -0.18 0.18 l-2.3 0 c-0.08 0 -0.14 -0.08 -0.14 -0.18 l0 -12.84 c0 -0.1 0.06 -0.18 0.14 -0.18 l4.16 0 c2.22 0 3.56 1.26 3.56 3.6 l0 2.52 c0 0.7 -0.12 1.36 -0.36 1.86 z M131.43499999999997 12.3 l0 -1.3 c0 -1.4 -0.52 -1.54 -2.04 -1.54 l-0.58 0 l0 4.42 l0.58 0 c1.26 0 2 -0.02 2.04 -1.58 z M133.95499999999998 20.88 l-0.62 -0.62 l0.56 0 l0.62 0.62 l-0.56 0 z M129.05499999999998 17.1 l0 -0.34 l0.2 0 l0.64 0.62 l-0.2 0 l0 0.34 z M132.83499999999998 20.88 l-0.62 -0.62 l0.54 0 l0.64 0.62 l-0.56 0 z M129.695 18.86 l-0.64 -0.64 l0 -0.54 l0.64 0.62 l0 0.56 z M129.695 19.98 l-0.64 -0.62 l0 -0.56 l0.64 0.62 l0 0.56 z M128.815 20.22 c0.12 -0.04 0.22 -0.16 0.24 -0.32 l0.64 0.66 l0 0.14 c0 0.1 -0.08 0.18 -0.18 0.18 l-0.06 0 z M128.33499999999998 20.88 l-0.62 -0.62 l0.58 0 l0.62 0.62 l-0.58 0 z M127.21499999999999 20.88 l-0.62 -0.62 l0.56 0 l0.64 0.62 l-0.58 0 z M134.89499999999998 10.6 l-0.58 -0.6 c-0.02 -0.22 -0.06 -0.44 -0.1 -0.64 l0.52 0.52 c0.08 0.22 0.12 0.48 0.16 0.72 z M134.93499999999997 11.76 l-0.62 -0.64 l0 -0.54 l0.62 0.62 l0 0.56 z M134.93499999999997 12.879999999999999 l-0.62 -0.62 l0 -0.56 l0.62 0.62 l0 0.56 z M134.295 13.36 c0.02 -0.14 0.02 -0.28 0.02 -0.44 l0 -0.1 l0.62 0.64 l0 0.34 l0 0.2 z M130.71499999999997 9.78 c0.14 0.08 0.24 0.18 0.34 0.34 z M130.695 10.32 l-0.56 0 l-0.62 -0.62 l0.54 0 z M134.815 15 l-0.68 -0.68 c0.02 -0.14 0.08 -0.3 0.1 -0.46 l0.66 0.66 c-0.04 0.16 -0.06 0.34 -0.08 0.48 z M129.695 10.46 l0 0.54 l-0.64 -0.62 l0 -0.58 z M133.795 15.1 c0.04 -0.08 0.06 -0.12 0.12 -0.22 c0.02 -0.06 0.04 -0.1 0.08 -0.16 l0.66 0.7 c-0.02 0.08 -0.04 0.16 -0.1 0.24 c-0.02 0.04 -0.04 0.1 -0.06 0.14 z M129.695 11.56 l0 0.56 l-0.64 -0.62 l0 -0.58 z M134.015 16.46 l-0.7 -0.7 c0.1 -0.1 0.18 -0.2 0.24 -0.3 l0.7 0.7 c-0.06 0.1 -0.14 0.2 -0.24 0.3 z M129.695 12.68 l0 0.58 l-0.64 -0.64 l0 -0.56 z M132.93499999999997 16.5 l-0.14 -0.32 c0.06 -0.06 0.14 -0.1 0.22 -0.18 l0.7 0.7 c-0.1 0.08 -0.22 0.16 -0.36 0.22 z M134.255 18.92 l-0.36 -0.36 l-0.48 -1.04 l0.38 0.38 z M129.05499999999998 13.620000000000001 l0 -0.44 l0.46 0.44 l-0.12 0 l-0.34 0 z M134.315 20.12 c0.12 -0.12 0.12 -0.3 0.08 -0.46 l-0.04 -0.06 l0.36 0.36 l0.32 0.66 c0.02 0.08 0 0.14 -0.02 0.18 z M142.71649999999997 6.92 c0.02 -0.06 0.06 -0.12 0.14 -0.12 l2.48 0 c0.08 0 0.12 0.06 0.14 0.12 l3.46 12.86 c0.02 0.12 -0.06 0.22 -0.18 0.22 l-2.28 0 c-0.06 0 -0.12 -0.04 -0.14 -0.12 l-0.78 -2.8 l-2.92 0 l-0.76 2.8 c-0.02 0.08 -0.06 0.12 -0.14 0.12 l-2.3 0 c-0.12 0 -0.2 -0.1 -0.18 -0.22 z M143.27649999999997 14.6 l1.66 0 l-0.86 -3.02 z M141.85649999999998 20.22 c0.16 -0.04 0.26 -0.14 0.28 -0.26 l0.68 0.64 l-0.06 0.16 c-0.02 0.06 -0.08 0.12 -0.14 0.12 l-0.1 0 z M149.75649999999996 20.82 c-0.02 0.04 -0.08 0.06 -0.12 0.06 l-0.4 0 l-0.62 -0.62 l0.14 0 c0.12 0 0.22 -0.06 0.3 -0.14 z M142.25649999999996 19.5 l0.12 -0.44 l0.66 0.66 l-0.12 0.44 z M142.47649999999996 18.6 l0.14 -0.42 l0.64 0.64 l-0.1 0.46 z M142.83649999999997 17.32 l0.1 0 l0.58 0.6 l-0.14 0.46 l-0.64 -0.66 z M147.4765 20.26 l0.58 0 l0.62 0.62 l-0.56 0 z M144.05649999999997 17.96 l-0.6 -0.64 l0.56 0 l0.62 0.64 l-0.58 0 z M140.75649999999996 20.26 l0.58 0 l0.6 0.62 l-0.56 0 z M140.81649999999996 20.88 l-0.48 0 c-0.02 0 -0.08 -0.02 -0.1 -0.06 l-0.6 -0.56 l0.58 0 z M145.53649999999996 17.96 l-0.36 0 l-0.6 -0.64 l0.56 0 l0.32 0.34 z M147.63649999999998 12.52 l-0.52 -0.5 l-0.2 -0.76 l0.52 0.5 z M148.85649999999998 17.12 l-0.52 -0.52 l-0.2 -0.74 l0.52 0.5 z M149.25649999999996 18.66 l-0.5 -0.5 l-0.2 -0.78 l0.5 0.5 z M148.45649999999998 15.6 l-0.52 -0.52 l-0.2 -0.78 l0.5 0.52 z M146.07649999999998 8.18 l0.54 0.52 l0.2 0.78 l-0.5 -0.52 z M149.67649999999998 20.18 l-0.52 -0.5 l-0.2 -0.78 l0.5 0.52 z M148.03649999999996 14.059999999999999 l-0.5 -0.5 l-0.22 -0.78 l0.52 0.52 z M147.21649999999997 11 l-0.5 -0.52 l-0.2 -0.76 l0.5 0.5 z M143.65649999999997 14.18 l0.12 -0.46 l0.64 0.64 l-0.58 0 z M144.25649999999996 13.08 l0.22 0.78 l-0.56 -0.58 l0.1 -0.42 z M146.67649999999998 20.26 l0.26 0 l0.62 0.62 l-0.2 0 c-0.04 0 -0.1 -0.02 -0.12 -0.06 z M145.87649999999996 7.42 l-0.04 -0.2 l0.44 0.46 c0.04 0.02 0.08 0.08 0.08 0.12 l0.06 0.12 z M161.85799999999998 14.780000000000001 c-0.28 0.58 -0.68 1.02 -1.24 1.28 l1.68 3.7 c0.06 0.12 -0.02 0.24 -0.14 0.24 l-2.46 0 c-0.08 0 -0.12 -0.04 -0.14 -0.1 l-1.56 -3.4 l-1.02 0 l0 3.32 c0 0.1 -0.08 0.18 -0.18 0.18 l-2.3 0 c-0.08 0 -0.14 -0.08 -0.14 -0.18 l0 -12.84 c0 -0.1 0.06 -0.18 0.14 -0.18 l4.16 0 c2.22 0 3.56 1.26 3.56 3.6 l0 2.52 c0 0.7 -0.12 1.36 -0.36 1.86 z M159.59799999999998 12.3 l0 -1.3 c0 -1.4 -0.52 -1.54 -2.04 -1.54 l-0.58 0 l0 4.42 l0.58 0 c1.26 0 2 -0.02 2.04 -1.58 z M162.118 20.88 l-0.62 -0.62 l0.56 0 l0.62 0.62 l-0.56 0 z M157.218 17.1 l0 -0.34 l0.2 0 l0.64 0.62 l-0.2 0 l0 0.34 z M160.998 20.88 l-0.62 -0.62 l0.54 0 l0.64 0.62 l-0.56 0 z M157.85799999999998 18.86 l-0.64 -0.64 l0 -0.54 l0.64 0.62 l0 0.56 z M157.85799999999998 19.98 l-0.64 -0.62 l0 -0.56 l0.64 0.62 l0 0.56 z M156.97799999999998 20.22 c0.12 -0.04 0.22 -0.16 0.24 -0.32 l0.64 0.66 l0 0.14 c0 0.1 -0.08 0.18 -0.18 0.18 l-0.06 0 z M156.498 20.88 l-0.62 -0.62 l0.58 0 l0.62 0.62 l-0.58 0 z M155.378 20.88 l-0.62 -0.62 l0.56 0 l0.64 0.62 l-0.58 0 z M163.058 10.6 l-0.58 -0.6 c-0.02 -0.22 -0.06 -0.44 -0.1 -0.64 l0.52 0.52 c0.08 0.22 0.12 0.48 0.16 0.72 z M163.09799999999998 11.76 l-0.62 -0.64 l0 -0.54 l0.62 0.62 l0 0.56 z M163.09799999999998 12.879999999999999 l-0.62 -0.62 l0 -0.56 l0.62 0.62 l0 0.56 z M162.45799999999997 13.36 c0.02 -0.14 0.02 -0.28 0.02 -0.44 l0 -0.1 l0.62 0.64 l0 0.34 l0 0.2 z M158.878 9.78 c0.14 0.08 0.24 0.18 0.34 0.34 z M158.85799999999998 10.32 l-0.56 0 l-0.62 -0.62 l0.54 0 z M162.97799999999998 15 l-0.68 -0.68 c0.02 -0.14 0.08 -0.3 0.1 -0.46 l0.66 0.66 c-0.04 0.16 -0.06 0.34 -0.08 0.48 z M157.85799999999998 10.46 l0 0.54 l-0.64 -0.62 l0 -0.58 z M161.95799999999997 15.1 c0.04 -0.08 0.06 -0.12 0.12 -0.22 c0.02 -0.06 0.04 -0.1 0.08 -0.16 l0.66 0.7 c-0.02 0.08 -0.04 0.16 -0.1 0.24 c-0.02 0.04 -0.04 0.1 -0.06 0.14 z M157.85799999999998 11.56 l0 0.56 l-0.64 -0.62 l0 -0.58 z M162.17799999999997 16.46 l-0.7 -0.7 c0.1 -0.1 0.18 -0.2 0.24 -0.3 l0.7 0.7 c-0.06 0.1 -0.14 0.2 -0.24 0.3 z M157.85799999999998 12.68 l0 0.58 l-0.64 -0.64 l0 -0.56 z M161.09799999999998 16.5 l-0.14 -0.32 c0.06 -0.06 0.14 -0.1 0.22 -0.18 l0.7 0.7 c-0.1 0.08 -0.22 0.16 -0.36 0.22 z M162.41799999999998 18.92 l-0.36 -0.36 l-0.48 -1.04 l0.38 0.38 z M157.218 13.620000000000001 l0 -0.44 l0.46 0.44 l-0.12 0 l-0.34 0 z M162.47799999999998 20.12 c0.12 -0.12 0.12 -0.3 0.08 -0.46 l-0.04 -0.06 l0.36 0.36 l0.32 0.66 c0.02 0.08 0 0.14 -0.02 0.18 z M171.6195 10.26 l1.7 -3.36 c0.06 -0.1 0.08 -0.1 0.16 -0.1 l2.24 0 c0.12 0 0.2 0.12 0.16 0.22 l-2.9 6.74 l0 6.06 c0 0.1 -0.08 0.18 -0.18 0.18 l-2.36 0 c-0.06 0 -0.14 -0.08 -0.14 -0.18 l0 -6.06 l-2.98 -6.7 c-0.04 -0.14 0.02 -0.26 0.16 -0.26 l2.24 0 c0.08 0 0.1 0 0.16 0.1 z M176.1195 7.119999999999999 c0.2 0.2 0.48 0.46 0.6 0.58 c0.06 0.06 0.08 0.12 0.06 0.2 l-0.14 0.28 l-0.66 -0.68 l0.14 -0.38 l0 0 z M175.6195 8.3 l0.18 -0.4 l0.68 0.68 l-0.18 0.4 z M176.1195 9.36 l-0.18 0.4 l-0.66 -0.68 l0.16 -0.4 z M175.7995 10.16 l-0.18 0.36 l-0.68 -0.66 l0.18 -0.4 z M175.43949999999998 10.92 l-0.16 0.38 l-0.68 -0.68 l0.18 -0.36 z M170.91949999999997 8.08 l-0.28 -0.28 l-0.16 -0.34 l0.2 0.2 c0.06 0.06 0.12 0.12 0.14 0.16 z M175.09949999999998 11.7 l-0.16 0.4 l-0.66 -0.68 l0.14 -0.4 z M173.91949999999997 12.2 l0.18 -0.4 l0.68 0.68 l-0.18 0.4 z M171.69949999999997 9.58 l-0.08 0.12 l-0.38 -0.74 l0.28 0.3 z M174.41949999999997 13.280000000000001 l-0.18 0.38 l-0.66 -0.68 l0.16 -0.38 z M173.2395 13.780000000000001 l0.18 -0.4 l0.68 0.68 l-0.18 0.4 z M173.21949999999998 14.879999999999999 l0 -0.58 l0.62 0.62 l0 0.56 z M173.21949999999998 16 l0 -0.58 l0.62 0.64 l0 0.54 z M173.21949999999998 17.12 l0 -0.56 l0.62 0.62 l0 0.54 z M173.21949999999998 18.22 l0 -0.54 l0.62 0.62 l0 0.56 z M173.21949999999998 19.36 l0 -0.56 l0.62 0.62 l0 0.56 z M172.97949999999997 20.22 c0.12 -0.04 0.22 -0.16 0.24 -0.32 l0.62 0.62 l0 0.18 c0 0.1 -0.06 0.18 -0.16 0.18 l-0.06 0 z M171.87949999999998 20.26 l0.54 0 l0.62 0.62 l-0.54 0 z M171.37949999999998 20.88 l-0.64 -0.62 l0.58 0 l0.6 0.62 l-0.54 0 z"/></g>
			</g>
		</svg>
	